#!OML:ASF I:\Actors\actors\Patient Classification 2\Patient 1\Session 1\actor1.ASF
:FULLY-SPECIFIED
:DEGREES
320
root -1.14186 18.7102 5.15332 2.05493 17.5566 -6.7309
lowerback 7.9432 5.05613 -8.31213
upperback 6.56725 6.32553 -3.40195
thorax 1.94941 2.96915 0.66904
lowerneck -13.0484 -0.173274 -0.449341
upperneck 30.8367 -0.720908 2.83291
head 12.3545 0.0635434 1.0674
rclavicle 6.83819e-014 -7.95139e-015
rhumerus 82.435 58.5479 -4.8689
rradius 108.905
rwrist -37.5832
rhand 9.37752 -28.9275
rfingers 7.12502
rthumb 34.5357 -55.5907
lclavicle 6.83819e-014 -7.95139e-015
lhumerus -108.722 -12.1897 119.047
lradius 106.369
lwrist 40.3288
lhand 24.271 21.3275
lfingers 7.12502
lthumb 48.491 43.308
rfemur 0 0 0
rtibia 0
rfoot 0 0
rtoes 0
lfemur -15.642 -12.2851 -3.65677
ltibia 25.5076
lfoot -17.5056 8.77068
ltoes -58.6618
321
root -1.16515 18.7079 5.17431 1.96606 17.6139 -6.88593
lowerback 8.1779 5.12053 -8.15065
upperback 6.37523 6.38228 -3.89259
thorax 1.68665 3.02573 0.0413156
lowerneck -13.2114 -0.0394765 -0.345445
upperneck 30.8939 -0.775241 3.53431
head 12.4177 0.142979 1.31052
rclavicle -5.1684e-014 2.22639e-014
rhumerus 81.766 58.1025 -5.60136
rradius 109.043
rwrist -37.5965
rhand 8.88125 -28.7395
rfingers 7.12502
rthumb 34.0645 -55.5089
lclavicle -5.1684e-014 2.22639e-014
lhumerus -109.227 -12.6552 118.624
lradius 105.475
lwrist 39.2237
lhand 24.9013 19.712
lfingers 7.12502
lthumb 49.0706 41.4094
rfemur 0 0 0
rtibia 0
rfoot 0 0
rtoes 0
lfemur -15.5765 -12.5192 -3.40355
ltibia 25.5248
lfoot -17.6304 8.86014
ltoes -58.5792
322
root -1.2041 18.7152 5.2056 2.50289 17.63 -6.153
lowerback 7.79151 5.12925 -9.56486
upperback 6.19437 6.34812 -4.35851
thorax 1.63729 2.97654 0.347142
lowerneck -13.4183 0.255655 -0.0934023
upperneck 30.8814 -0.546947 3.93678
head 12.4528 0.325219 1.45378
rclavicle 1.66979e-014 -2.8625e-014
rhumerus 81.9205 57.4936 -5.51572
rradius 109.256
rwrist -37.6937
rhand 8.33743 -28.5198
rfingers 7.12502
rthumb 33.5478 -55.4028
lclavicle 1.66979e-014 -2.8625e-014
lhumerus -109.143 -12.6931 118.001
lradius 104.151
lwrist 38.817
lhand 22.7816 19.0358
lfingers 7.12502
lthumb 47.117 41.6503
rfemur 0 0 0
rtibia 0
rfoot 0 0
rtoes 0
lfemur -15.8768 -12.8045 -3.98561
ltibia 25.5033
lfoot -17.7997 9.172
ltoes -58.6308
323
root -1.17712 18.7088 5.1956 2.20338 17.6876 -6.82225
lowerback 8.0214 4.91633 -8.73035
upperback 6.10088 6.07938 -4.49041
thorax 1.51724 2.87838 -0.237046
lowerneck -13.6055 0.660609 0.147093
upperneck 30.8194 -0.07111 4.05897
head 12.4552 0.578121 1.52666
rclavicle -8.98507e-014 -6.36111e-015
rhumerus 82.7354 56.8499 -4.64286
rradius 109.575
rwrist -37.8076
rhand 7.80481 -28.417
rfingers 7.12502
rthumb 33.0414 -55.4085
lclavicle -8.98507e-014 -6.36111e-015
lhumerus -108.812 -12.2377 117.529
lradius 102.582
lwrist 38.8896
lhand 19.8108 18.227
lfingers 7.12502
lthumb 44.3588 41.9748
rfemur 0 0 0
rtibia 0
rfoot 0 0
rtoes 0
lfemur -15.6724 -12.8508 -3.35055
ltibia 25.3371
lfoot -17.7583 9.21524
ltoes -58.7477
324
root -1.17856 18.7038 5.21006 2.0084 17.6244 -7.21708
lowerback 7.88685 4.76543 -8.91472
upperback 6.04512 5.8798 -4.4415
thorax 1.52237 2.77204 -0.0611872
lowerneck -13.6567 1.08516 0.374514
upperneck 30.725 0.482056 4.04329
head 12.4144 0.844317 1.55819
rclavicle 3.02153e-014 1.90833e-014
rhumerus 83.8542 56.295 -3.48335
rradius 109.862
rwrist -37.9102
rhand 7.33183 -28.3412
rfingers 7.12502
rthumb 32.5915 -55.4268
lclavicle 3.02153e-014 1.90833e-014
lhumerus -108.506 -11.4991 117.162
lradius 100.933
lwrist 39.1892
lhand 14.6699 15.9304
lfingers 7.12502
lthumb 39.5409 41.2933
rfemur 0 0 0
rtibia 0
rfoot 0 0
rtoes 0
lfemur -15.4302 -12.9619 -2.91005
ltibia 25.1996
lfoot -17.8004 9.31493
ltoes -58.6961
325
root -1.21256 18.7177 5.24236 2.93763 17.7227 -5.60767
lowerback 7.65428 4.8562 -10.7902
upperback 5.71243 5.89846 -5.3459
thorax 1.24405 2.76098 0.00723474
lowerneck -13.7145 1.24069 0.771805
upperneck 30.6821 0.425516 4.60716
head 12.415 0.93864 1.69626
rclavicle 1.43125e-014 6.04305e-014
rhumerus 82.9876 56.0109 -4.51675
rradius 109.928
rwrist -37.879
rhand 6.89655 -28.2087
rfingers 7.12502
rthumb 32.1772 -55.379
lclavicle 1.43125e-014 6.04305e-014
lhumerus -108.974 -11.9627 116.412
lradius 99.4286
lwrist 40.4851
lhand 9.88329 13.9291
lfingers 7.12502
lthumb 35.0156 40.4815
rfemur 0 0 0
rtibia 0
rfoot 0 0
rtoes 0
lfemur -15.8119 -13.6074 -4.4541
ltibia 25.1285
lfoot -17.9772 9.88368
ltoes -58.5869
326
root -1.22817 18.7118 5.26331 2.68777 17.5072 -6.17784
lowerback 7.69733 4.87373 -10.5505
upperback 5.53241 5.9087 -5.50711
thorax 1.06507 2.78577 -0.300659
lowerneck -13.7899 1.51318 1.00467
upperneck 30.6478 0.666827 4.89061
head 12.4132 1.10857 1.7988
rclavicle 6.52014e-014 -3.81667e-014
rhumerus 83.1402 55.7151 -4.45686
rradius 110.06
rwrist -37.9189
rhand 6.63736 -27.9973
rfingers 7.12502
rthumb 31.9304 -55.2171
lclavicle 6.52014e-014 -3.81667e-014
lhumerus -108.64 -11.8187 115.539
lradius 97.4446
lwrist 42.3666
lhand 4.67723 11.6125
lfingers 7.12502
lthumb 30.0621 39.1885
rfemur 0 0 0
rtibia 0
rfoot 0 0
rtoes 0
lfemur -15.5431 -13.5652 -3.77856
ltibia 25.0084
lfoot -18.0601 10.0194
ltoes -58.5469
327
root -1.24138 18.7079 5.28208 2.58359 17.3089 -6.47384
lowerback 7.39185 4.79318 -11.2206
upperback 5.4614 5.79767 -5.28442
thorax 1.08766 2.70667 0.319996
lowerneck -13.8374 1.90603 1.07044
upperneck 30.5812 1.24529 4.78886
head 12.3812 1.35662 1.82962
rclavicle 7.71285e-014 -1.90833e-014
rhumerus 84.3814 55.2807 -3.07567
rradius 110.3
rwrist -37.9586
rhand 6.58866 -27.7763
rfingers 7.12502
rthumb 31.8841 -55.0054
lclavicle 7.71285e-014 -1.90833e-014
lhumerus -107.281 -10.9143 114.658
lradius 94.7551
lwrist 44.0299
lhand -0.157319 9.85569
lfingers 7.12502
lthumb 25.4397 38.178
rfemur 0 0 0
rtibia 0
rfoot 0 0
rtoes 0
lfemur -15.3155 -13.4798 -3.40897
ltibia 24.8301
lfoot -18.0876 10.0831
ltoes -58.5016
328
root -1.25249 18.7068 5.29983 2.6668 17.1061 -6.58738
lowerback 7.76282 4.88602 -10.9348
upperback 4.9352 5.81866 -5.87879
thorax 0.409334 2.7729 -0.508831
lowerneck -13.7636 2.1139 1.63006
upperneck 30.6786 1.28574 5.1621
head 12.4133 1.48979 1.88337
rclavicle -3.65764e-014 1.59028e-014
rhumerus 83.7466 55.3475 -3.98582
rradius 110.365
rwrist -37.673
rhand 6.55627 -27.4789
rfingers 7.12502
rthumb 31.8532 -54.7142
lclavicle -3.65764e-014 1.59028e-014
lhumerus -106.748 -11.1106 113.182
lradius 92.0264
lwrist 46.1772
lhand -6.88436 7.6483
lfingers 7.12502
lthumb 18.982 36.7421
rfemur 0 0 0
rtibia 0
rfoot 0 0
rtoes 0
lfemur -15.3097 -13.48 -3.21471
ltibia 24.839
lfoot -18.2339 10.2055
ltoes -58.4405
329
root -1.26358 18.7064 5.31837 2.79461 16.8683 -6.68656
lowerback 7.95438 4.93323 -10.9849
upperback 4.4314 5.78427 -6.26596
thorax -0.191283 2.79242 -0.924804
lowerneck -13.7828 2.37889 2.14776
upperneck 30.833 1.50064 5.25588
head 12.4856 1.66047 1.86675
rclavicle 4.77083e-014 -4.45278e-014
rhumerus 83.6772 55.3212 -4.24178
rradius 110.496
rwrist -37.4483
rhand 6.25795 -27.2413
rfingers 7.12502
rthumb 31.5691 -54.5327
lclavicle 4.77083e-014 -4.45278e-014
lhumerus -105.77 -11.069 111.627
lradius 89.1146
lwrist 49.2818
lhand -12.917 4.97673
lfingers 7.12502
lthumb 13.1732 34.5406
rfemur 0 0 0
rtibia 0
rfoot 0 0
rtoes 0
lfemur -15.3062 -13.5441 -3.03095
ltibia 24.8094
lfoot -18.4031 10.4673
ltoes -58.4047
330
root -1.27375 18.7071 5.33831 2.91788 16.6109 -6.77877
lowerback 8.11674 4.96765 -11.173
upperback 3.89902 5.71991 -6.5513
thorax -0.827482 2.79358 -1.15963
lowerneck -13.809 2.69386 2.58071
upperneck 31.0441 1.79874 5.38611
head 12.5806 1.8643 1.89359
rclavicle -1.74931e-014 -5.725e-014
rhumerus 83.8914 55.3828 -4.22958
rradius 110.622
rwrist -37.3446
rhand 5.97307 -27.1939
rfingers 7.12502
rthumb 31.2977 -54.5382
lclavicle -1.74931e-014 -5.725e-014
lhumerus -104.69 -10.8423 109.756
lradius 86.3611
lwrist 52.8226
lhand -18.106 2.25901
lfingers 7.12502
lthumb 8.16808 32.0811
rfemur 0 0 0
rtibia 0
rfoot 0 0
rtoes 0
lfemur -15.2794 -13.5953 -2.87085
ltibia 24.766
lfoot -18.5839 10.7658
ltoes -58.3518
331
root -1.2834 18.7091 5.36107 3.10364 16.3089 -6.82922
lowerback 8.21093 5.02875 -11.2897
upperback 3.32192 5.6979 -6.93297
thorax -1.4607 2.81808 -1.53695
lowerneck -13.6673 2.9911 3.18563
upperneck 31.0939 2.03464 5.5278
head 12.5815 2.05906 1.87757
rclavicle -3.49861e-014 3.18055e-014
rhumerus 84.0492 55.4993 -4.36881
rradius 110.678
rwrist -37.3211
rhand 6.04029 -27.2383
rfingers 7.12502
rthumb 31.3617 -54.5702
lclavicle -3.49861e-014 3.18055e-014
lhumerus -103.605 -10.7912 107.517
lradius 83.7822
lwrist 55.6465
lhand -23.8873 0.336466
lfingers 7.12502
lthumb 2.58616 30.3005
rfemur 0 0 0
rtibia 0
rfoot 0 0
rtoes 0
lfemur -15.2859 -13.6812 -2.75001
ltibia 24.7297
lfoot -18.8314 11.1228
ltoes -58.236
332
root -1.29178 18.7114 5.38585 3.3128 15.9707 -6.88785
lowerback 8.1814 5.10365 -11.339
upperback 2.81785 5.72695 -7.32918
thorax -1.94404 2.86072 -1.9587
lowerneck -13.6423 3.26479 3.7873
upperneck 31.004 2.24525 5.6294
head 12.5526 2.23497 1.84123
rclavicle 3.33958e-014 -3.49861e-014
rhumerus 84.347 55.3938 -4.40742
rradius 110.669
rwrist -37.2658
rhand 6.21264 -27.3147
rfingers 7.12502
rthumb 31.5259 -54.6146
lclavicle 3.33958e-014 -3.49861e-014
lhumerus -102.076 -10.894 104.905
lradius 81.0324
lwrist 57.5007
lhand -27.5351 -1.01003
lfingers 7.12502
lthumb -0.936914 28.9677
rfemur 0 0 0
rtibia 0
rfoot 0 0
rtoes 0
lfemur -15.2999 -13.909 -2.61739
ltibia 24.7051
lfoot -19.1097 11.631
ltoes -58.1159
